<?xml version="1.0" standalone="no"?>
<!DOCTYPE svg PUBLIC "-//W3C//DTD SVG 20010904//EN"
 "http://www.w3.org/TR/2001/REC-SVG-20010904/DTD/svg10.dtd">
<svg version="1.0" xmlns="http://www.w3.org/2000/svg"
 width="512.000000pt" height="495.000000pt" viewBox="0 0 512.000000 495.000000"
 preserveAspectRatio="xMidYMid meet">
<metadata>
Created by potrace 1.16, written by Peter Selinger 2001-2019
</metadata>
<g transform="translate(0.000000,495.000000) scale(0.100000,-0.100000)"
fill="#000000" stroke="none">
<path d="M1050 2480 l0 -1580 325 0 325 0 0 523 0 522 114 120 113 120 84
-130 c47 -71 233 -361 414 -642 l329 -513 253 0 c139 0 253 2 253 5 0 3 -229
362 -510 797 l-509 793 90 90 c55 55 92 86 97 79 4 -6 261 -405 572 -887 l565
-877 252 0 c139 0 253 3 253 6 0 3 -301 474 -670 1046 l-670 1040 518 525
c284 288 519 529 520 534 2 5 -160 9 -411 9 l-414 0 -621 -616 -622 -616 0
616 0 616 -325 0 -325 0 0 -1580z"/>
</g>
</svg>
